<?xml version="1.0" encoding="utf-8"?>
<!-- Generator: Adobe Illustrator 18.1.1, SVG Export Plug-In . SVG Version: 6.00 Build 0)  -->
<svg version="1.1" id="Layer_1" xmlns="http://www.w3.org/2000/svg" xmlns:xlink="http://www.w3.org/1999/xlink" x="0px" y="0px"
	 viewBox="31.6 180.5 570.9 236.6" enable-background="new 31.6 180.5 570.9 236.6" xml:space="preserve">
<g>
	<path fill="#D9EAD3" d="M32.1,181h95.6v235.6H32.1V181z"/>
	<path fill="none" stroke="#000000" stroke-linejoin="round" stroke-miterlimit="10" d="M32.1,181h95.6v235.6H32.1V181z"/>
	<path d="M56.8,198.3l1.3-0.1c0.1,0.5,0.2,0.9,0.4,1.3c0.2,0.3,0.6,0.6,1,0.8c0.5,0.2,1,0.3,1.6,0.3c0.5,0,1-0.1,1.4-0.2
		c0.4-0.2,0.7-0.4,0.9-0.6c0.2-0.3,0.3-0.6,0.3-0.9c0-0.3-0.1-0.6-0.3-0.8c-0.2-0.2-0.5-0.5-0.9-0.6c-0.3-0.1-0.9-0.3-1.9-0.5
		c-1-0.2-1.6-0.5-2-0.7c-0.5-0.3-0.9-0.6-1.1-1c-0.2-0.4-0.4-0.8-0.4-1.3c0-0.5,0.1-1,0.4-1.5c0.3-0.5,0.7-0.8,1.3-1
		c0.6-0.2,1.2-0.4,1.9-0.4c0.8,0,1.5,0.1,2,0.4c0.6,0.2,1,0.6,1.4,1.1c0.3,0.5,0.5,1,0.5,1.6l-1.3,0.1c-0.1-0.7-0.3-1.1-0.7-1.5
		c-0.4-0.3-1-0.5-1.8-0.5c-0.8,0-1.4,0.2-1.8,0.5c-0.4,0.3-0.6,0.7-0.6,1.1c0,0.4,0.1,0.7,0.4,0.9c0.3,0.2,1,0.5,2.1,0.7
		c1.1,0.3,1.9,0.5,2.3,0.7c0.6,0.3,1.1,0.6,1.3,1.1c0.3,0.4,0.4,0.9,0.4,1.5c0,0.6-0.2,1.1-0.5,1.6c-0.3,0.5-0.8,0.9-1.4,1.1
		c-0.6,0.3-1.3,0.4-2,0.4c-0.9,0-1.7-0.1-2.4-0.4c-0.6-0.3-1.1-0.7-1.5-1.2C57,199.6,56.8,199,56.8,198.3z M69.4,201.6v-9.2H66v-1.2
		h8.2v1.2h-3.4v9.2H69.4z M74.3,201.6l4-10.4h1.5l4.3,10.4h-1.6l-1.2-3.2h-4.4l-1.1,3.2H74.3z M77.3,197.4h3.5l-1.1-2.9
		c-0.3-0.9-0.6-1.6-0.7-2.2c-0.1,0.7-0.3,1.3-0.6,2L77.3,197.4z M92.4,198l1.4,0.3c-0.3,1.1-0.8,2-1.6,2.6c-0.7,0.6-1.7,0.9-2.7,0.9
		c-1.1,0-2-0.2-2.7-0.7c-0.7-0.5-1.2-1.1-1.6-2c-0.4-0.9-0.5-1.8-0.5-2.8c0-1.1,0.2-2,0.6-2.8c0.4-0.8,1-1.4,1.8-1.8
		c0.8-0.4,1.6-0.6,2.5-0.6c1,0,1.9,0.3,2.6,0.8c0.7,0.5,1.2,1.3,1.5,2.2l-1.4,0.3c-0.2-0.8-0.6-1.3-1.1-1.6c-0.5-0.4-1-0.5-1.7-0.5
		c-0.8,0-1.5,0.2-2,0.6c-0.5,0.4-0.9,0.9-1.1,1.6c-0.2,0.6-0.3,1.3-0.3,2c0,0.9,0.1,1.7,0.4,2.3c0.3,0.7,0.7,1.1,1.2,1.5
		c0.5,0.3,1.1,0.5,1.8,0.5c0.8,0,1.4-0.2,2-0.7C91.9,199.5,92.2,198.9,92.4,198z M95.2,201.6v-10.4h1.4v5.2l5.2-5.2h1.9l-4.4,4.2
		l4.6,6.2H102l-3.7-5.3l-1.7,1.7v3.6H95.2z"/>
	<path fill="#CFE2F3" d="M34.2,372.7h91v40.5h-91V372.7z"/>
	<path fill="none" stroke="#000000" stroke-linejoin="round" stroke-miterlimit="10" stroke-dasharray="1,3" d="M34.2,372.7h91v40.5
		h-91V372.7z"/>
	<path d="M53.3,396.6v-4.5h-0.8v-0.7h0.8v-0.5c0-0.4,0-0.6,0.1-0.8c0.1-0.2,0.2-0.4,0.4-0.5c0.2-0.1,0.5-0.2,0.9-0.2
		c0.2,0,0.5,0,0.8,0.1l-0.1,0.8c-0.2,0-0.4,0-0.5,0c-0.3,0-0.5,0.1-0.6,0.2c-0.1,0.1-0.2,0.3-0.2,0.6v0.5h1v0.7h-1v4.5H53.3z
		 M55.6,395l0.9-0.1c0,0.3,0.2,0.6,0.4,0.8c0.2,0.2,0.5,0.3,0.9,0.3c0.4,0,0.7-0.1,0.9-0.2c0.2-0.2,0.3-0.4,0.3-0.6
		c0-0.2-0.1-0.4-0.3-0.5c-0.1-0.1-0.4-0.2-0.9-0.3c-0.6-0.2-1.1-0.3-1.3-0.4c-0.2-0.1-0.4-0.3-0.6-0.5c-0.1-0.2-0.2-0.4-0.2-0.7
		c0-0.2,0.1-0.4,0.2-0.6c0.1-0.2,0.2-0.4,0.4-0.5c0.1-0.1,0.3-0.2,0.5-0.3c0.2-0.1,0.5-0.1,0.8-0.1c0.4,0,0.7,0.1,1.1,0.2
		c0.3,0.1,0.5,0.3,0.7,0.5c0.2,0.2,0.3,0.5,0.3,0.8l-0.9,0.1c0-0.3-0.2-0.5-0.3-0.6c-0.2-0.2-0.4-0.2-0.8-0.2
		c-0.4,0-0.7,0.1-0.9,0.2c-0.2,0.1-0.3,0.3-0.3,0.5c0,0.1,0,0.2,0.1,0.3c0.1,0.1,0.2,0.2,0.3,0.2c0.1,0,0.3,0.1,0.8,0.2
		c0.6,0.2,1.1,0.3,1.3,0.4c0.2,0.1,0.4,0.3,0.6,0.5c0.1,0.2,0.2,0.4,0.2,0.7c0,0.3-0.1,0.6-0.3,0.8c-0.2,0.3-0.4,0.5-0.7,0.6
		c-0.3,0.1-0.7,0.2-1.1,0.2c-0.7,0-1.2-0.1-1.5-0.4C55.9,396,55.7,395.6,55.6,395z M61.3,396.6v-1h1v1H61.3z M63.9,396.6v-5.2h0.8
		v0.8c0.2-0.4,0.4-0.6,0.5-0.7c0.2-0.1,0.4-0.2,0.6-0.2c0.3,0,0.6,0.1,0.9,0.3l-0.3,0.8c-0.2-0.1-0.4-0.2-0.6-0.2
		c-0.2,0-0.4,0.1-0.5,0.2c-0.2,0.1-0.3,0.3-0.3,0.5c-0.1,0.3-0.1,0.6-0.1,1v2.7H63.9z M70.8,394.9l0.9,0.1c-0.1,0.5-0.4,0.9-0.8,1.2
		c-0.4,0.3-0.9,0.4-1.5,0.4c-0.8,0-1.4-0.2-1.8-0.7c-0.4-0.5-0.7-1.1-0.7-2c0-0.9,0.2-1.5,0.7-2c0.5-0.5,1-0.7,1.7-0.7
		c0.7,0,1.3,0.2,1.7,0.7c0.4,0.5,0.7,1.1,0.7,2c0,0.1,0,0.1,0,0.2h-3.8c0,0.6,0.2,1,0.5,1.3c0.3,0.3,0.6,0.5,1.1,0.5
		c0.3,0,0.6-0.1,0.8-0.3C70.5,395.5,70.7,395.3,70.8,394.9z M67.9,393.5h2.9c0-0.4-0.2-0.8-0.3-1c-0.3-0.3-0.6-0.5-1.1-0.5
		c-0.4,0-0.7,0.1-1,0.4C68.1,392.7,68,393,67.9,393.5z M76.3,395.9c-0.3,0.3-0.6,0.5-0.9,0.6c-0.3,0.1-0.6,0.2-1,0.2
		c-0.6,0-1-0.1-1.3-0.4c-0.3-0.3-0.5-0.6-0.5-1.1c0-0.2,0.1-0.5,0.2-0.7c0.1-0.2,0.3-0.4,0.5-0.5c0.2-0.1,0.4-0.2,0.6-0.3
		c0.2,0,0.4-0.1,0.8-0.1c0.7-0.1,1.2-0.2,1.6-0.3c0-0.1,0-0.2,0-0.2c0-0.4-0.1-0.6-0.3-0.8c-0.2-0.2-0.6-0.3-1-0.3
		c-0.4,0-0.7,0.1-0.9,0.2c-0.2,0.1-0.3,0.4-0.4,0.8l-0.8-0.1c0.1-0.4,0.2-0.7,0.4-0.9c0.2-0.2,0.4-0.4,0.8-0.5
		c0.3-0.1,0.7-0.2,1.2-0.2c0.4,0,0.8,0.1,1.1,0.2c0.3,0.1,0.5,0.2,0.6,0.4c0.1,0.2,0.2,0.3,0.3,0.6c0,0.2,0,0.4,0,0.8v1.2
		c0,0.8,0,1.3,0.1,1.5c0,0.2,0.1,0.4,0.2,0.6h-0.9C76.4,396.4,76.3,396.2,76.3,395.9z M76.2,394c-0.3,0.1-0.8,0.2-1.4,0.3
		c-0.4,0.1-0.6,0.1-0.8,0.2c-0.2,0.1-0.3,0.2-0.3,0.3c-0.1,0.1-0.1,0.3-0.1,0.4c0,0.2,0.1,0.4,0.3,0.6c0.2,0.2,0.4,0.2,0.8,0.2
		c0.3,0,0.6-0.1,0.9-0.2c0.3-0.2,0.5-0.4,0.6-0.6c0.1-0.2,0.1-0.5,0.1-0.9V394z M82,396.6v-0.6c-0.3,0.5-0.8,0.8-1.4,0.8
		c-0.4,0-0.8-0.1-1.1-0.3c-0.3-0.2-0.6-0.5-0.8-1c-0.2-0.4-0.3-0.9-0.3-1.4c0-0.5,0.1-1,0.3-1.4c0.2-0.4,0.4-0.7,0.8-1
		c0.3-0.2,0.7-0.3,1.1-0.3c0.3,0,0.6,0.1,0.8,0.2c0.2,0.1,0.4,0.3,0.6,0.5v-2.6h0.9v7.1H82z M79.2,394c0,0.7,0.1,1.2,0.4,1.5
		c0.3,0.3,0.6,0.5,1,0.5s0.7-0.2,1-0.5c0.3-0.3,0.4-0.8,0.4-1.4c0-0.7-0.1-1.2-0.4-1.6c-0.3-0.3-0.6-0.5-1-0.5c-0.4,0-0.7,0.2-1,0.5
		C79.3,392.8,79.2,393.3,79.2,394z M84.4,396.6v-7.1h4.8v0.8h-3.9v2.2h3.3v0.8h-3.3v3.2H84.4z M90.5,390.5v-1h0.9v1H90.5z
		 M90.5,396.6v-5.2h0.9v5.2H90.5z M92.8,396.6v-7.1h0.9v7.1H92.8z M98.6,394.9l0.9,0.1c-0.1,0.5-0.4,0.9-0.8,1.2
		c-0.4,0.3-0.9,0.4-1.5,0.4c-0.8,0-1.4-0.2-1.8-0.7c-0.4-0.5-0.7-1.1-0.7-2c0-0.9,0.2-1.5,0.7-2c0.5-0.5,1-0.7,1.7-0.7
		c0.7,0,1.3,0.2,1.7,0.7c0.4,0.5,0.7,1.1,0.7,2c0,0.1,0,0.1,0,0.2h-3.8c0,0.6,0.2,1,0.5,1.3c0.3,0.3,0.6,0.5,1.1,0.5
		c0.3,0,0.6-0.1,0.8-0.3C98.3,395.5,98.4,395.3,98.6,394.9z M95.7,393.5h2.9c0-0.4-0.2-0.8-0.3-1c-0.3-0.3-0.6-0.5-1.1-0.5
		c-0.4,0-0.7,0.1-1,0.4C95.9,392.7,95.7,393,95.7,393.5z M102.4,398.7c-0.5-0.6-0.9-1.3-1.2-2.1c-0.3-0.8-0.5-1.7-0.5-2.5
		c0-0.8,0.1-1.5,0.4-2.2c0.3-0.8,0.7-1.6,1.4-2.5h0.6c-0.4,0.7-0.6,1.2-0.8,1.4c-0.2,0.4-0.4,0.9-0.5,1.4c-0.1,0.6-0.2,1.2-0.2,1.8
		c0,1.6,0.5,3.1,1.4,4.7H102.4z M104.7,398.7h-0.6c1-1.6,1.5-3.1,1.5-4.7c0-0.6-0.1-1.2-0.2-1.8c-0.1-0.5-0.3-1-0.5-1.4
		c-0.1-0.3-0.4-0.8-0.8-1.5h0.6c0.6,0.8,1.1,1.6,1.4,2.5c0.2,0.7,0.4,1.4,0.4,2.2c0,0.9-0.2,1.7-0.5,2.5
		C105.6,397.3,105.2,398.1,104.7,398.7z"/>
	<path fill="#C9DAF8" d="M416.9,187.2h185.1v229.5H416.9V187.2z"/>
	<path fill="none" stroke="#000000" stroke-linejoin="round" stroke-miterlimit="10" d="M416.9,187.2h185.1v229.5H416.9V187.2z"/>
	<path d="M444.3,207.7v-10.4h3.9c0.8,0,1.4,0.1,1.9,0.3c0.5,0.2,0.9,0.5,1.1,1c0.3,0.4,0.4,0.9,0.4,1.4c0,0.4-0.1,0.9-0.4,1.3
		c-0.2,0.4-0.6,0.7-1.1,0.9c0.6,0.2,1.1,0.5,1.4,0.9c0.3,0.4,0.5,1,0.5,1.6c0,0.5-0.1,0.9-0.3,1.4c-0.2,0.4-0.5,0.7-0.8,1
		c-0.3,0.2-0.7,0.4-1.1,0.5c-0.5,0.1-1,0.2-1.7,0.2H444.3z M445.7,201.7h2.2c0.6,0,1.1,0,1.3-0.1c0.4-0.1,0.6-0.3,0.8-0.5
		c0.2-0.2,0.3-0.5,0.3-0.9c0-0.3-0.1-0.6-0.3-0.9c-0.2-0.3-0.4-0.4-0.7-0.5c-0.3-0.1-0.8-0.2-1.6-0.2h-2.1V201.7z M445.7,206.5h2.6
		c0.4,0,0.8,0,0.9,0c0.3-0.1,0.6-0.1,0.8-0.3c0.2-0.1,0.4-0.3,0.5-0.6c0.1-0.3,0.2-0.5,0.2-0.9c0-0.4-0.1-0.7-0.3-1
		c-0.2-0.3-0.5-0.5-0.8-0.6c-0.4-0.1-0.9-0.2-1.5-0.2h-2.4V206.5z M458.7,206.8c-0.5,0.4-0.9,0.7-1.4,0.9c-0.4,0.2-0.9,0.2-1.4,0.2
		c-0.8,0-1.5-0.2-1.9-0.6c-0.4-0.4-0.7-0.9-0.7-1.6c0-0.4,0.1-0.7,0.3-1c0.2-0.3,0.4-0.5,0.7-0.7c0.3-0.2,0.6-0.3,0.9-0.4
		c0.3-0.1,0.6-0.1,1.1-0.2c1-0.1,1.8-0.3,2.3-0.4c0-0.2,0-0.3,0-0.3c0-0.5-0.1-0.9-0.4-1.1c-0.3-0.3-0.8-0.4-1.5-0.4
		c-0.6,0-1,0.1-1.3,0.3c-0.3,0.2-0.5,0.6-0.6,1.1l-1.3-0.2c0.1-0.5,0.3-1,0.6-1.3c0.3-0.3,0.6-0.6,1.1-0.8c0.5-0.2,1.1-0.3,1.7-0.3
		c0.6,0,1.2,0.1,1.6,0.2c0.4,0.2,0.7,0.3,0.9,0.6c0.2,0.2,0.3,0.5,0.4,0.9c0,0.2,0.1,0.6,0.1,1.2v1.7c0,1.2,0,1.9,0.1,2.3
		c0.1,0.3,0.2,0.6,0.3,0.9h-1.3C458.8,207.5,458.7,207.2,458.7,206.8z M458.5,204c-0.5,0.2-1.2,0.3-2.1,0.5
		c-0.5,0.1-0.9,0.2-1.1,0.3s-0.4,0.2-0.5,0.4c-0.1,0.2-0.2,0.4-0.2,0.6c0,0.3,0.1,0.6,0.4,0.9c0.3,0.2,0.6,0.3,1.1,0.3
		s0.9-0.1,1.3-0.3c0.4-0.2,0.7-0.5,0.8-0.9c0.1-0.3,0.2-0.7,0.2-1.3V204z M466.6,205l1.3,0.2c-0.1,0.9-0.5,1.5-1.1,2
		c-0.6,0.5-1.3,0.7-2.1,0.7c-1,0-1.9-0.3-2.5-1c-0.6-0.7-0.9-1.6-0.9-2.9c0-0.8,0.1-1.5,0.4-2.1c0.3-0.6,0.7-1.1,1.2-1.4
		c0.6-0.3,1.2-0.5,1.8-0.5c0.8,0,1.5,0.2,2,0.6s0.9,1,1,1.8l-1.2,0.2c-0.1-0.5-0.3-0.9-0.6-1.1c-0.3-0.3-0.7-0.4-1.1-0.4
		c-0.6,0-1.2,0.2-1.6,0.7c-0.4,0.5-0.6,1.2-0.6,2.2c0,1,0.2,1.7,0.6,2.2c0.4,0.5,0.9,0.7,1.5,0.7c0.5,0,0.9-0.2,1.3-0.5
		C466.3,206.1,466.5,205.6,466.6,205z M468.8,207.7v-10.4h1.3v5.9l3-3.1h1.6l-2.9,2.8l3.2,4.7h-1.6l-2.5-3.8l-0.9,0.9v3H468.8z
		 M475.7,208.4l1.2,0.2c0.1,0.4,0.2,0.7,0.4,0.8c0.3,0.2,0.7,0.3,1.3,0.3c0.6,0,1.1-0.1,1.4-0.4c0.3-0.2,0.5-0.6,0.7-1
		c0.1-0.3,0.1-0.8,0.1-1.6c-0.6,0.7-1.3,1-2.1,1c-1,0-1.8-0.4-2.4-1.1c-0.6-0.7-0.8-1.6-0.8-2.7c0-0.7,0.1-1.4,0.4-2
		c0.3-0.6,0.6-1.1,1.1-1.4c0.5-0.3,1.1-0.5,1.7-0.5c0.9,0,1.6,0.4,2.2,1.1v-0.9h1.2v6.5c0,1.2-0.1,2-0.4,2.5
		c-0.2,0.5-0.6,0.9-1.1,1.2c-0.5,0.3-1.2,0.4-1.9,0.4c-0.9,0-1.6-0.2-2.2-0.6C475.9,209.8,475.7,209.2,475.7,208.4z M476.8,203.8
		c0,1,0.2,1.7,0.6,2.2c0.4,0.5,0.9,0.7,1.5,0.7c0.6,0,1.1-0.2,1.5-0.7c0.4-0.5,0.6-1.2,0.6-2.1c0-0.9-0.2-1.6-0.6-2.1
		c-0.4-0.5-0.9-0.7-1.5-0.7c-0.6,0-1,0.2-1.4,0.7C477,202.3,476.8,202.9,476.8,203.8z M483.9,207.7v-7.5h1.1v1.1
		c0.3-0.5,0.6-0.9,0.8-1.1c0.2-0.2,0.5-0.3,0.8-0.3c0.4,0,0.9,0.1,1.3,0.4l-0.4,1.2c-0.3-0.2-0.6-0.3-0.9-0.3
		c-0.3,0-0.5,0.1-0.8,0.3c-0.2,0.2-0.4,0.4-0.5,0.7c-0.1,0.5-0.2,1-0.2,1.5v3.9H483.9z M488.1,204c0-1.4,0.4-2.4,1.2-3.1
		c0.6-0.6,1.4-0.8,2.4-0.8c1,0,1.9,0.3,2.5,1c0.7,0.7,1,1.6,1,2.8c0,1-0.1,1.7-0.4,2.3c-0.3,0.5-0.7,1-1.3,1.3
		c-0.5,0.3-1.2,0.5-1.8,0.5c-1.1,0-1.9-0.3-2.6-1C488.5,206.2,488.1,205.3,488.1,204z M489.5,204c0,1,0.2,1.7,0.6,2.2
		c0.4,0.5,1,0.7,1.6,0.7s1.2-0.2,1.6-0.7c0.4-0.5,0.6-1.2,0.6-2.2c0-0.9-0.2-1.6-0.6-2.1c-0.4-0.5-0.9-0.7-1.6-0.7
		c-0.6,0-1.2,0.2-1.6,0.7C489.7,202.3,489.5,203,489.5,204z M501.5,207.7v-1.1c-0.6,0.9-1.4,1.3-2.4,1.3c-0.4,0-0.9-0.1-1.2-0.3
		c-0.4-0.2-0.7-0.4-0.9-0.6c-0.2-0.3-0.3-0.6-0.4-0.9c0-0.3-0.1-0.7-0.1-1.2v-4.7h1.3v4.2c0,0.7,0,1.1,0.1,1.4
		c0.1,0.3,0.3,0.6,0.5,0.8s0.6,0.3,1,0.3c0.4,0,0.7-0.1,1.1-0.3c0.3-0.2,0.6-0.5,0.7-0.8c0.1-0.3,0.2-0.8,0.2-1.5v-4h1.3v7.5H501.5z
		 M504.5,207.7v-7.5h1.1v1.1c0.6-0.8,1.4-1.2,2.4-1.2c0.5,0,0.9,0.1,1.3,0.3c0.4,0.2,0.7,0.4,0.8,0.6c0.2,0.3,0.3,0.6,0.4,0.9
		c0,0.2,0.1,0.7,0.1,1.2v4.6h-1.3v-4.6c0-0.5-0.1-0.9-0.2-1.2c-0.1-0.3-0.3-0.5-0.5-0.6c-0.3-0.2-0.6-0.2-0.9-0.2
		c-0.5,0-1,0.2-1.4,0.5c-0.4,0.3-0.6,1-0.6,2v4.1H504.5z M517.3,207.7v-1c-0.5,0.7-1.2,1.1-2.1,1.1c-0.6,0-1.2-0.2-1.7-0.5
		c-0.5-0.3-0.9-0.8-1.2-1.4c-0.3-0.6-0.4-1.3-0.4-2.1c0-0.7,0.1-1.4,0.4-2c0.3-0.6,0.6-1.1,1.1-1.4c0.5-0.3,1.1-0.5,1.7-0.5
		c0.5,0,0.9,0.1,1.2,0.3c0.4,0.2,0.6,0.4,0.9,0.8v-3.7h1.3v10.4H517.3z M513.3,204c0,1,0.2,1.7,0.6,2.2c0.4,0.5,0.9,0.7,1.4,0.7
		c0.6,0,1-0.2,1.4-0.7c0.4-0.5,0.6-1.2,0.6-2.1c0-1-0.2-1.8-0.6-2.3c-0.4-0.5-0.9-0.7-1.5-0.7c-0.6,0-1,0.2-1.4,0.7
		S513.3,203,513.3,204z M527.1,207.7v-9.2h-3.4v-1.2h8.2v1.2h-3.4v9.2H527.1z M533.1,207.7v-10.4h1.3v3.7c0.6-0.7,1.4-1,2.3-1
		c0.6,0,1,0.1,1.4,0.3c0.4,0.2,0.7,0.5,0.9,0.9c0.2,0.4,0.3,1,0.3,1.7v4.8h-1.3V203c0-0.6-0.1-1.1-0.4-1.4c-0.3-0.3-0.7-0.4-1.2-0.4
		c-0.4,0-0.7,0.1-1.1,0.3c-0.3,0.2-0.6,0.5-0.7,0.8c-0.1,0.3-0.2,0.8-0.2,1.4v4.1H533.1z M541,207.7v-7.5h1.1v1.1
		c0.3-0.5,0.6-0.9,0.8-1.1c0.2-0.2,0.5-0.3,0.8-0.3c0.4,0,0.9,0.1,1.3,0.4l-0.4,1.2c-0.3-0.2-0.6-0.3-0.9-0.3
		c-0.3,0-0.5,0.1-0.8,0.3c-0.2,0.2-0.4,0.4-0.5,0.7c-0.1,0.5-0.2,1-0.2,1.5v3.9H541z M550.9,205.3l1.3,0.2c-0.2,0.8-0.6,1.4-1.2,1.8
		c-0.6,0.4-1.3,0.6-2.2,0.6c-1.1,0-2-0.3-2.6-1c-0.6-0.7-1-1.6-1-2.9c0-1.3,0.3-2.3,1-3c0.7-0.7,1.5-1.1,2.5-1.1c1,0,1.8,0.3,2.5,1
		c0.6,0.7,1,1.7,1,2.9c0,0.1,0,0.2,0,0.3h-5.6c0,0.8,0.3,1.5,0.7,1.9s0.9,0.7,1.6,0.7c0.5,0,0.9-0.1,1.2-0.4
		C550.4,206.3,550.7,205.9,550.9,205.3z M546.7,203.3h4.2c-0.1-0.6-0.2-1.1-0.5-1.4c-0.4-0.5-0.9-0.7-1.6-0.7
		c-0.6,0-1.1,0.2-1.5,0.6C547,202.1,546.8,202.6,546.7,203.3z M558.6,206.8c-0.5,0.4-0.9,0.7-1.4,0.9c-0.4,0.2-0.9,0.2-1.4,0.2
		c-0.8,0-1.5-0.2-1.9-0.6c-0.4-0.4-0.7-0.9-0.7-1.6c0-0.4,0.1-0.7,0.3-1c0.2-0.3,0.4-0.5,0.7-0.7c0.3-0.2,0.6-0.3,0.9-0.4
		c0.3-0.1,0.6-0.1,1.1-0.2c1-0.1,1.8-0.3,2.3-0.4c0-0.2,0-0.3,0-0.3c0-0.5-0.1-0.9-0.4-1.1c-0.3-0.3-0.8-0.4-1.5-0.4
		c-0.6,0-1,0.1-1.3,0.3s-0.5,0.6-0.6,1.1l-1.3-0.2c0.1-0.5,0.3-1,0.6-1.3c0.3-0.3,0.6-0.6,1.1-0.8c0.5-0.2,1.1-0.3,1.7-0.3
		c0.6,0,1.2,0.1,1.6,0.2c0.4,0.2,0.7,0.3,0.9,0.6c0.2,0.2,0.3,0.5,0.4,0.9c0,0.2,0.1,0.6,0.1,1.2v1.7c0,1.2,0,1.9,0.1,2.3
		c0.1,0.3,0.2,0.6,0.3,0.9h-1.3C558.7,207.5,558.6,207.2,558.6,206.8z M558.5,204c-0.5,0.2-1.2,0.3-2.1,0.5
		c-0.5,0.1-0.9,0.2-1.1,0.3s-0.4,0.2-0.5,0.4c-0.1,0.2-0.2,0.4-0.2,0.6c0,0.3,0.1,0.6,0.4,0.9c0.3,0.2,0.6,0.3,1.1,0.3
		c0.5,0,0.9-0.1,1.3-0.3c0.4-0.2,0.7-0.5,0.8-0.9c0.1-0.3,0.2-0.7,0.2-1.3V204z M566.5,207.7v-1c-0.5,0.7-1.2,1.1-2.1,1.1
		c-0.6,0-1.2-0.2-1.7-0.5c-0.5-0.3-0.9-0.8-1.2-1.4c-0.3-0.6-0.4-1.3-0.4-2.1c0-0.7,0.1-1.4,0.4-2c0.3-0.6,0.6-1.1,1.1-1.4
		c0.5-0.3,1.1-0.5,1.7-0.5c0.5,0,0.9,0.1,1.2,0.3c0.4,0.2,0.6,0.4,0.9,0.8v-3.7h1.3v10.4H566.5z M562.5,204c0,1,0.2,1.7,0.6,2.2
		c0.4,0.5,0.9,0.7,1.4,0.7c0.6,0,1-0.2,1.4-0.7c0.4-0.5,0.6-1.2,0.6-2.1c0-1-0.2-1.8-0.6-2.3c-0.4-0.5-0.9-0.7-1.5-0.7
		c-0.6,0-1,0.2-1.4,0.7S562.5,203,562.5,204z M569,205.5l1.3-0.2c0.1,0.5,0.3,0.9,0.6,1.2c0.3,0.3,0.8,0.4,1.4,0.4
		c0.6,0,1-0.1,1.3-0.4c0.3-0.2,0.4-0.5,0.4-0.8c0-0.3-0.1-0.5-0.4-0.7c-0.2-0.1-0.6-0.3-1.3-0.4c-0.9-0.2-1.6-0.4-2-0.6
		c-0.4-0.2-0.6-0.4-0.8-0.7c-0.2-0.3-0.3-0.6-0.3-1c0-0.3,0.1-0.6,0.2-0.9c0.2-0.3,0.4-0.5,0.6-0.7c0.2-0.1,0.5-0.3,0.8-0.4
		c0.3-0.1,0.7-0.2,1.1-0.2c0.6,0,1.1,0.1,1.6,0.3c0.4,0.2,0.8,0.4,1,0.7c0.2,0.3,0.4,0.7,0.4,1.2l-1.2,0.2c-0.1-0.4-0.2-0.7-0.5-0.9
		c-0.3-0.2-0.7-0.3-1.1-0.3c-0.6,0-1,0.1-1.3,0.3c-0.2,0.2-0.4,0.4-0.4,0.7c0,0.2,0.1,0.3,0.2,0.5c0.1,0.1,0.3,0.2,0.5,0.3
		c0.1,0,0.5,0.2,1.1,0.3c0.9,0.2,1.5,0.4,1.9,0.6c0.4,0.2,0.6,0.4,0.8,0.7c0.2,0.3,0.3,0.7,0.3,1.1c0,0.4-0.1,0.8-0.4,1.2
		c-0.2,0.4-0.6,0.7-1.1,0.9c-0.5,0.2-1,0.3-1.6,0.3c-1,0-1.7-0.2-2.2-0.6C569.5,206.9,569.2,206.3,569,205.5z"/>
	<path fill="#FFF2CC" d="M423.1,227.3h73.3v40.5h-73.3V227.3z"/>
	<path fill="none" stroke="#000000" stroke-linejoin="round" stroke-miterlimit="10" d="M423.1,227.3h73.3v40.5h-73.3V227.3z"/>
	<path d="M433.5,251.2v-4.5h-0.8v-0.7h0.8v-0.5c0-0.4,0-0.6,0.1-0.8c0.1-0.2,0.2-0.4,0.4-0.5c0.2-0.1,0.5-0.2,0.9-0.2
		c0.2,0,0.5,0,0.8,0.1l-0.1,0.8c-0.2,0-0.4,0-0.5,0c-0.3,0-0.5,0.1-0.6,0.2c-0.1,0.1-0.2,0.3-0.2,0.6v0.5h1v0.7h-1v4.5H433.5z
		 M435.8,249.7l0.9-0.1c0,0.3,0.2,0.6,0.4,0.8c0.2,0.2,0.5,0.3,0.9,0.3c0.4,0,0.7-0.1,0.9-0.2c0.2-0.2,0.3-0.4,0.3-0.6
		c0-0.2-0.1-0.4-0.3-0.5c-0.1-0.1-0.4-0.2-0.9-0.3c-0.6-0.2-1.1-0.3-1.3-0.4c-0.2-0.1-0.4-0.3-0.6-0.5c-0.1-0.2-0.2-0.4-0.2-0.7
		c0-0.2,0.1-0.4,0.2-0.6c0.1-0.2,0.2-0.4,0.4-0.5c0.1-0.1,0.3-0.2,0.5-0.3c0.2-0.1,0.5-0.1,0.8-0.1c0.4,0,0.7,0.1,1.1,0.2
		c0.3,0.1,0.5,0.3,0.7,0.5c0.2,0.2,0.3,0.5,0.3,0.8l-0.9,0.1c0-0.3-0.2-0.5-0.3-0.6c-0.2-0.2-0.4-0.2-0.8-0.2
		c-0.4,0-0.7,0.1-0.9,0.2c-0.2,0.1-0.3,0.3-0.3,0.5c0,0.1,0,0.2,0.1,0.3c0.1,0.1,0.2,0.2,0.3,0.2c0.1,0,0.3,0.1,0.8,0.2
		c0.6,0.2,1.1,0.3,1.3,0.4c0.2,0.1,0.4,0.3,0.6,0.5c0.1,0.2,0.2,0.4,0.2,0.7s-0.1,0.6-0.3,0.8c-0.2,0.3-0.4,0.5-0.7,0.6
		c-0.3,0.1-0.7,0.2-1.1,0.2c-0.7,0-1.2-0.1-1.5-0.4C436.1,250.6,435.9,250.2,435.8,249.7z M441.5,251.2v-1h1v1H441.5z M444,251.2
		v-5.2h0.8v0.8c0.2-0.4,0.4-0.6,0.5-0.7c0.2-0.1,0.4-0.2,0.6-0.2c0.3,0,0.6,0.1,0.9,0.3l-0.3,0.8c-0.2-0.1-0.4-0.2-0.6-0.2
		c-0.2,0-0.4,0.1-0.5,0.2c-0.2,0.1-0.3,0.3-0.3,0.5c-0.1,0.3-0.1,0.6-0.1,1v2.7H444z M451,249.6l0.9,0.1c-0.1,0.5-0.4,0.9-0.8,1.2
		c-0.4,0.3-0.9,0.4-1.5,0.4c-0.8,0-1.4-0.2-1.8-0.7c-0.4-0.5-0.7-1.1-0.7-2c0-0.9,0.2-1.5,0.7-2c0.5-0.5,1-0.7,1.7-0.7
		c0.7,0,1.3,0.2,1.7,0.7c0.4,0.5,0.7,1.1,0.7,2c0,0.1,0,0.1,0,0.2H448c0,0.6,0.2,1,0.5,1.3c0.3,0.3,0.6,0.5,1.1,0.5
		c0.3,0,0.6-0.1,0.8-0.3C450.7,250.2,450.8,249.9,451,249.6z M448.1,248.1h2.9c0-0.4-0.2-0.8-0.3-1c-0.3-0.3-0.6-0.5-1.1-0.5
		c-0.4,0-0.7,0.1-1,0.4C448.3,247.3,448.1,247.7,448.1,248.1z M456.5,250.6c-0.3,0.3-0.6,0.5-0.9,0.6c-0.3,0.1-0.6,0.2-1,0.2
		c-0.6,0-1-0.1-1.3-0.4c-0.3-0.3-0.5-0.6-0.5-1.1c0-0.2,0.1-0.5,0.2-0.7c0.1-0.2,0.3-0.4,0.5-0.5c0.2-0.1,0.4-0.2,0.6-0.3
		c0.2,0,0.4-0.1,0.8-0.1c0.7-0.1,1.2-0.2,1.6-0.3c0-0.1,0-0.2,0-0.2c0-0.4-0.1-0.6-0.3-0.8c-0.2-0.2-0.6-0.3-1-0.3
		c-0.4,0-0.7,0.1-0.9,0.2c-0.2,0.1-0.3,0.4-0.4,0.8l-0.8-0.1c0.1-0.4,0.2-0.7,0.4-0.9c0.2-0.2,0.4-0.4,0.8-0.5
		c0.3-0.1,0.7-0.2,1.2-0.2c0.4,0,0.8,0.1,1.1,0.2c0.3,0.1,0.5,0.2,0.6,0.4c0.1,0.2,0.2,0.3,0.3,0.6c0,0.2,0,0.4,0,0.8v1.2
		c0,0.8,0,1.3,0.1,1.5c0,0.2,0.1,0.4,0.2,0.6h-0.9C456.6,251,456.5,250.8,456.5,250.6z M456.4,248.6c-0.3,0.1-0.8,0.2-1.4,0.3
		c-0.4,0.1-0.6,0.1-0.8,0.2c-0.2,0.1-0.3,0.2-0.3,0.3c-0.1,0.1-0.1,0.3-0.1,0.4c0,0.2,0.1,0.4,0.3,0.6c0.2,0.2,0.4,0.2,0.8,0.2
		c0.3,0,0.6-0.1,0.9-0.2c0.3-0.2,0.5-0.4,0.6-0.6c0.1-0.2,0.1-0.5,0.1-0.9V248.6z M462.1,251.2v-0.6c-0.3,0.5-0.8,0.8-1.4,0.8
		c-0.4,0-0.8-0.1-1.1-0.3c-0.3-0.2-0.6-0.5-0.8-1c-0.2-0.4-0.3-0.9-0.3-1.4c0-0.5,0.1-1,0.3-1.4c0.2-0.4,0.4-0.7,0.8-1
		s0.7-0.3,1.1-0.3c0.3,0,0.6,0.1,0.8,0.2c0.2,0.1,0.4,0.3,0.6,0.5v-2.6h0.9v7.1H462.1z M459.4,248.6c0,0.7,0.1,1.2,0.4,1.5
		c0.3,0.3,0.6,0.5,1,0.5c0.4,0,0.7-0.2,1-0.5c0.3-0.3,0.4-0.8,0.4-1.4c0-0.7-0.1-1.2-0.4-1.6c-0.3-0.3-0.6-0.5-1-0.5
		c-0.4,0-0.7,0.2-1,0.5C459.5,247.5,459.4,248,459.4,248.6z M464.6,251.2v-7.1h4.8v0.8h-3.9v2.2h3.3v0.8h-3.3v3.2H464.6z
		 M470.7,245.1v-1h0.9v1H470.7z M470.7,251.2v-5.2h0.9v5.2H470.7z M472.9,251.2v-7.1h0.9v7.1H472.9z M478.7,249.6l0.9,0.1
		c-0.1,0.5-0.4,0.9-0.8,1.2c-0.4,0.3-0.9,0.4-1.5,0.4c-0.8,0-1.4-0.2-1.8-0.7c-0.4-0.5-0.7-1.1-0.7-2c0-0.9,0.2-1.5,0.7-2
		c0.5-0.5,1-0.7,1.7-0.7c0.7,0,1.3,0.2,1.7,0.7c0.4,0.5,0.7,1.1,0.7,2c0,0.1,0,0.1,0,0.2h-3.8c0,0.6,0.2,1,0.5,1.3s0.6,0.5,1.1,0.5
		c0.3,0,0.6-0.1,0.8-0.3C478.4,250.2,478.6,249.9,478.7,249.6z M475.9,248.1h2.9c0-0.4-0.2-0.8-0.3-1c-0.3-0.3-0.6-0.5-1.1-0.5
		c-0.4,0-0.7,0.1-1,0.4C476,247.3,475.9,247.7,475.9,248.1z M482.5,253.3c-0.5-0.6-0.9-1.3-1.2-2.1c-0.3-0.8-0.5-1.7-0.5-2.5
		c0-0.8,0.1-1.5,0.4-2.2c0.3-0.8,0.7-1.6,1.4-2.5h0.6c-0.4,0.7-0.6,1.2-0.8,1.4c-0.2,0.4-0.4,0.9-0.5,1.4c-0.1,0.6-0.2,1.2-0.2,1.8
		c0,1.6,0.5,3.1,1.4,4.7H482.5z M484.8,253.3h-0.6c1-1.6,1.5-3.1,1.5-4.7c0-0.6-0.1-1.2-0.2-1.8c-0.1-0.5-0.3-1-0.5-1.4
		c-0.1-0.3-0.4-0.8-0.8-1.5h0.6c0.6,0.8,1.1,1.6,1.4,2.5c0.2,0.7,0.4,1.4,0.4,2.2c0,0.9-0.2,1.7-0.5,2.5
		C485.7,252,485.3,252.7,484.8,253.3z"/>
	<path fill-opacity="0" d="M125.2,392.9l298-145.3"/>
	<path fill="none" stroke="#000000" stroke-linejoin="round" stroke-miterlimit="10" d="M125.2,392.9L419,249.6"/>
	<path stroke="#000000" stroke-miterlimit="10" d="M419.6,250.7l2.6-2.7l-3.7,0.4L419.6,250.7z"/>
</g>
</svg>
