<?xml version="1.0" encoding="utf-8"?>
<svg id="Layer_1" x="0px" y="0px" viewBox="31.6 180.5 570.9 320" xmlns="http://www.w3.org/2000/svg">
  <g>
    <path fill="#D9EAD3" d="M32.1,181h95.6v235.6H32.1V181z"/>
    <path fill="none" stroke="#000000" stroke-linejoin="round" stroke-miterlimit="10" d="M32.1,181h95.6v235.6H32.1V181z"/>
    <path d="M56.8,198.3l1.3-0.1c0.1,0.5,0.2,0.9,0.4,1.3c0.2,0.3,0.6,0.6,1,0.8c0.5,0.2,1,0.3,1.6,0.3c0.5,0,1-0.1,1.4-0.2&#10;&#9;&#9;c0.4-0.2,0.7-0.4,0.9-0.6c0.2-0.3,0.3-0.6,0.3-0.9c0-0.3-0.1-0.6-0.3-0.8c-0.2-0.2-0.5-0.5-0.9-0.6c-0.3-0.1-0.9-0.3-1.9-0.5&#10;&#9;&#9;c-1-0.2-1.6-0.5-2-0.7c-0.5-0.3-0.9-0.6-1.1-1c-0.2-0.4-0.4-0.8-0.4-1.3c0-0.5,0.1-1,0.4-1.5c0.3-0.5,0.7-0.8,1.3-1&#10;&#9;&#9;c0.6-0.2,1.2-0.4,1.9-0.4c0.8,0,1.5,0.1,2,0.4c0.6,0.2,1,0.6,1.4,1.1c0.3,0.5,0.5,1,0.5,1.6l-1.3,0.1c-0.1-0.7-0.3-1.1-0.7-1.5&#10;&#9;&#9;c-0.4-0.3-1-0.5-1.8-0.5c-0.8,0-1.4,0.2-1.8,0.5c-0.4,0.3-0.6,0.7-0.6,1.1c0,0.4,0.1,0.7,0.4,0.9c0.3,0.2,1,0.5,2.1,0.7&#10;&#9;&#9;c1.1,0.3,1.9,0.5,2.3,0.7c0.6,0.3,1.1,0.6,1.3,1.1c0.3,0.4,0.4,0.9,0.4,1.5c0,0.6-0.2,1.1-0.5,1.6c-0.3,0.5-0.8,0.9-1.4,1.1&#10;&#9;&#9;c-0.6,0.3-1.3,0.4-2,0.4c-0.9,0-1.7-0.1-2.4-0.4c-0.6-0.3-1.1-0.7-1.5-1.2C57,199.6,56.8,199,56.8,198.3z M69.4,201.6v-9.2H66v-1.2&#10;&#9;&#9;h8.2v1.2h-3.4v9.2H69.4z M74.3,201.6l4-10.4h1.5l4.3,10.4h-1.6l-1.2-3.2h-4.4l-1.1,3.2H74.3z M77.3,197.4h3.5l-1.1-2.9&#10;&#9;&#9;c-0.3-0.9-0.6-1.6-0.7-2.2c-0.1,0.7-0.3,1.3-0.6,2L77.3,197.4z M92.4,198l1.4,0.3c-0.3,1.1-0.8,2-1.6,2.6c-0.7,0.6-1.7,0.9-2.7,0.9&#10;&#9;&#9;c-1.1,0-2-0.2-2.7-0.7c-0.7-0.5-1.2-1.1-1.6-2c-0.4-0.9-0.5-1.8-0.5-2.8c0-1.1,0.2-2,0.6-2.8c0.4-0.8,1-1.4,1.8-1.8&#10;&#9;&#9;c0.8-0.4,1.6-0.6,2.5-0.6c1,0,1.9,0.3,2.6,0.8c0.7,0.5,1.2,1.3,1.5,2.2l-1.4,0.3c-0.2-0.8-0.6-1.3-1.1-1.6c-0.5-0.4-1-0.5-1.7-0.5&#10;&#9;&#9;c-0.8,0-1.5,0.2-2,0.6c-0.5,0.4-0.9,0.9-1.1,1.6c-0.2,0.6-0.3,1.3-0.3,2c0,0.9,0.1,1.7,0.4,2.3c0.3,0.7,0.7,1.1,1.2,1.5&#10;&#9;&#9;c0.5,0.3,1.1,0.5,1.8,0.5c0.8,0,1.4-0.2,2-0.7C91.9,199.5,92.2,198.9,92.4,198z M95.2,201.6v-10.4h1.4v5.2l5.2-5.2h1.9l-4.4,4.2&#10;&#9;&#9;l4.6,6.2H102l-3.7-5.3l-1.7,1.7v3.6H95.2z"/>
    <path fill="#C9DAF8" d="M416.9,187.2h185.1v229.5H416.9V187.2z"/>
    <path fill="none" stroke="#000000" stroke-linejoin="round" stroke-miterlimit="10" d="M416.9,187.2h185.1v229.5H416.9V187.2z"/>
    <path d="M444.3,207.7v-10.4h3.9c0.8,0,1.4,0.1,1.9,0.3c0.5,0.2,0.9,0.5,1.1,1c0.3,0.4,0.4,0.9,0.4,1.4c0,0.4-0.1,0.9-0.4,1.3&#10;&#9;&#9;c-0.2,0.4-0.6,0.7-1.1,0.9c0.6,0.2,1.1,0.5,1.4,0.9c0.3,0.4,0.5,1,0.5,1.6c0,0.5-0.1,0.9-0.3,1.4c-0.2,0.4-0.5,0.7-0.8,1&#10;&#9;&#9;c-0.3,0.2-0.7,0.4-1.1,0.5c-0.5,0.1-1,0.2-1.7,0.2H444.3z M445.7,201.7h2.2c0.6,0,1.1,0,1.3-0.1c0.4-0.1,0.6-0.3,0.8-0.5&#10;&#9;&#9;c0.2-0.2,0.3-0.5,0.3-0.9c0-0.3-0.1-0.6-0.3-0.9c-0.2-0.3-0.4-0.4-0.7-0.5c-0.3-0.1-0.8-0.2-1.6-0.2h-2.1V201.7z M445.7,206.5h2.6&#10;&#9;&#9;c0.4,0,0.8,0,0.9,0c0.3-0.1,0.6-0.1,0.8-0.3c0.2-0.1,0.4-0.3,0.5-0.6c0.1-0.3,0.2-0.5,0.2-0.9c0-0.4-0.1-0.7-0.3-1&#10;&#9;&#9;c-0.2-0.3-0.5-0.5-0.8-0.6c-0.4-0.1-0.9-0.2-1.5-0.2h-2.4V206.5z M458.7,206.8c-0.5,0.4-0.9,0.7-1.4,0.9c-0.4,0.2-0.9,0.2-1.4,0.2&#10;&#9;&#9;c-0.8,0-1.5-0.2-1.9-0.6c-0.4-0.4-0.7-0.9-0.7-1.6c0-0.4,0.1-0.7,0.3-1c0.2-0.3,0.4-0.5,0.7-0.7c0.3-0.2,0.6-0.3,0.9-0.4&#10;&#9;&#9;c0.3-0.1,0.6-0.1,1.1-0.2c1-0.1,1.8-0.3,2.3-0.4c0-0.2,0-0.3,0-0.3c0-0.5-0.1-0.9-0.4-1.1c-0.3-0.3-0.8-0.4-1.5-0.4&#10;&#9;&#9;c-0.6,0-1,0.1-1.3,0.3c-0.3,0.2-0.5,0.6-0.6,1.1l-1.3-0.2c0.1-0.5,0.3-1,0.6-1.3c0.3-0.3,0.6-0.6,1.1-0.8c0.5-0.2,1.1-0.3,1.7-0.3&#10;&#9;&#9;c0.6,0,1.2,0.1,1.6,0.2c0.4,0.2,0.7,0.3,0.9,0.6c0.2,0.2,0.3,0.5,0.4,0.9c0,0.2,0.1,0.6,0.1,1.2v1.7c0,1.2,0,1.9,0.1,2.3&#10;&#9;&#9;c0.1,0.3,0.2,0.6,0.3,0.9h-1.3C458.8,207.5,458.7,207.2,458.7,206.8z M458.5,204c-0.5,0.2-1.2,0.3-2.1,0.5&#10;&#9;&#9;c-0.5,0.1-0.9,0.2-1.1,0.3s-0.4,0.2-0.5,0.4c-0.1,0.2-0.2,0.4-0.2,0.6c0,0.3,0.1,0.6,0.4,0.9c0.3,0.2,0.6,0.3,1.1,0.3&#10;&#9;&#9;s0.9-0.1,1.3-0.3c0.4-0.2,0.7-0.5,0.8-0.9c0.1-0.3,0.2-0.7,0.2-1.3V204z M466.6,205l1.3,0.2c-0.1,0.9-0.5,1.5-1.1,2&#10;&#9;&#9;c-0.6,0.5-1.3,0.7-2.1,0.7c-1,0-1.9-0.3-2.5-1c-0.6-0.7-0.9-1.6-0.9-2.9c0-0.8,0.1-1.5,0.4-2.1c0.3-0.6,0.7-1.1,1.2-1.4&#10;&#9;&#9;c0.6-0.3,1.2-0.5,1.8-0.5c0.8,0,1.5,0.2,2,0.6s0.9,1,1,1.8l-1.2,0.2c-0.1-0.5-0.3-0.9-0.6-1.1c-0.3-0.3-0.7-0.4-1.1-0.4&#10;&#9;&#9;c-0.6,0-1.2,0.2-1.6,0.7c-0.4,0.5-0.6,1.2-0.6,2.2c0,1,0.2,1.7,0.6,2.2c0.4,0.5,0.9,0.7,1.5,0.7c0.5,0,0.9-0.2,1.3-0.5&#10;&#9;&#9;C466.3,206.1,466.5,205.6,466.6,205z M468.8,207.7v-10.4h1.3v5.9l3-3.1h1.6l-2.9,2.8l3.2,4.7h-1.6l-2.5-3.8l-0.9,0.9v3H468.8z&#10;&#9;&#9; M475.7,208.4l1.2,0.2c0.1,0.4,0.2,0.7,0.4,0.8c0.3,0.2,0.7,0.3,1.3,0.3c0.6,0,1.1-0.1,1.4-0.4c0.3-0.2,0.5-0.6,0.7-1&#10;&#9;&#9;c0.1-0.3,0.1-0.8,0.1-1.6c-0.6,0.7-1.3,1-2.1,1c-1,0-1.8-0.4-2.4-1.1c-0.6-0.7-0.8-1.6-0.8-2.7c0-0.7,0.1-1.4,0.4-2&#10;&#9;&#9;c0.3-0.6,0.6-1.1,1.1-1.4c0.5-0.3,1.1-0.5,1.7-0.5c0.9,0,1.6,0.4,2.2,1.1v-0.9h1.2v6.5c0,1.2-0.1,2-0.4,2.5&#10;&#9;&#9;c-0.2,0.5-0.6,0.9-1.1,1.2c-0.5,0.3-1.2,0.4-1.9,0.4c-0.9,0-1.6-0.2-2.2-0.6C475.9,209.8,475.7,209.2,475.7,208.4z M476.8,203.8&#10;&#9;&#9;c0,1,0.2,1.7,0.6,2.2c0.4,0.5,0.9,0.7,1.5,0.7c0.6,0,1.1-0.2,1.5-0.7c0.4-0.5,0.6-1.2,0.6-2.1c0-0.9-0.2-1.6-0.6-2.1&#10;&#9;&#9;c-0.4-0.5-0.9-0.7-1.5-0.7c-0.6,0-1,0.2-1.4,0.7C477,202.3,476.8,202.9,476.8,203.8z M483.9,207.7v-7.5h1.1v1.1&#10;&#9;&#9;c0.3-0.5,0.6-0.9,0.8-1.1c0.2-0.2,0.5-0.3,0.8-0.3c0.4,0,0.9,0.1,1.3,0.4l-0.4,1.2c-0.3-0.2-0.6-0.3-0.9-0.3&#10;&#9;&#9;c-0.3,0-0.5,0.1-0.8,0.3c-0.2,0.2-0.4,0.4-0.5,0.7c-0.1,0.5-0.2,1-0.2,1.5v3.9H483.9z M488.1,204c0-1.4,0.4-2.4,1.2-3.1&#10;&#9;&#9;c0.6-0.6,1.4-0.8,2.4-0.8c1,0,1.9,0.3,2.5,1c0.7,0.7,1,1.6,1,2.8c0,1-0.1,1.7-0.4,2.3c-0.3,0.5-0.7,1-1.3,1.3&#10;&#9;&#9;c-0.5,0.3-1.2,0.5-1.8,0.5c-1.1,0-1.9-0.3-2.6-1C488.5,206.2,488.1,205.3,488.1,204z M489.5,204c0,1,0.2,1.7,0.6,2.2&#10;&#9;&#9;c0.4,0.5,1,0.7,1.6,0.7s1.2-0.2,1.6-0.7c0.4-0.5,0.6-1.2,0.6-2.2c0-0.9-0.2-1.6-0.6-2.1c-0.4-0.5-0.9-0.7-1.6-0.7&#10;&#9;&#9;c-0.6,0-1.2,0.2-1.6,0.7C489.7,202.3,489.5,203,489.5,204z M501.5,207.7v-1.1c-0.6,0.9-1.4,1.3-2.4,1.3c-0.4,0-0.9-0.1-1.2-0.3&#10;&#9;&#9;c-0.4-0.2-0.7-0.4-0.9-0.6c-0.2-0.3-0.3-0.6-0.4-0.9c0-0.3-0.1-0.7-0.1-1.2v-4.7h1.3v4.2c0,0.7,0,1.1,0.1,1.4&#10;&#9;&#9;c0.1,0.3,0.3,0.6,0.5,0.8s0.6,0.3,1,0.3c0.4,0,0.7-0.1,1.1-0.3c0.3-0.2,0.6-0.5,0.7-0.8c0.1-0.3,0.2-0.8,0.2-1.5v-4h1.3v7.5H501.5z&#10;&#9;&#9; M504.5,207.7v-7.5h1.1v1.1c0.6-0.8,1.4-1.2,2.4-1.2c0.5,0,0.9,0.1,1.3,0.3c0.4,0.2,0.7,0.4,0.8,0.6c0.2,0.3,0.3,0.6,0.4,0.9&#10;&#9;&#9;c0,0.2,0.1,0.7,0.1,1.2v4.6h-1.3v-4.6c0-0.5-0.1-0.9-0.2-1.2c-0.1-0.3-0.3-0.5-0.5-0.6c-0.3-0.2-0.6-0.2-0.9-0.2&#10;&#9;&#9;c-0.5,0-1,0.2-1.4,0.5c-0.4,0.3-0.6,1-0.6,2v4.1H504.5z M517.3,207.7v-1c-0.5,0.7-1.2,1.1-2.1,1.1c-0.6,0-1.2-0.2-1.7-0.5&#10;&#9;&#9;c-0.5-0.3-0.9-0.8-1.2-1.4c-0.3-0.6-0.4-1.3-0.4-2.1c0-0.7,0.1-1.4,0.4-2c0.3-0.6,0.6-1.1,1.1-1.4c0.5-0.3,1.1-0.5,1.7-0.5&#10;&#9;&#9;c0.5,0,0.9,0.1,1.2,0.3c0.4,0.2,0.6,0.4,0.9,0.8v-3.7h1.3v10.4H517.3z M513.3,204c0,1,0.2,1.7,0.6,2.2c0.4,0.5,0.9,0.7,1.4,0.7&#10;&#9;&#9;c0.6,0,1-0.2,1.4-0.7c0.4-0.5,0.6-1.2,0.6-2.1c0-1-0.2-1.8-0.6-2.3c-0.4-0.5-0.9-0.7-1.5-0.7c-0.6,0-1,0.2-1.4,0.7&#10;&#9;&#9;S513.3,203,513.3,204z M527.1,207.7v-9.2h-3.4v-1.2h8.2v1.2h-3.4v9.2H527.1z M533.1,207.7v-10.4h1.3v3.7c0.6-0.7,1.4-1,2.3-1&#10;&#9;&#9;c0.6,0,1,0.1,1.4,0.3c0.4,0.2,0.7,0.5,0.9,0.9c0.2,0.4,0.3,1,0.3,1.7v4.8h-1.3V203c0-0.6-0.1-1.1-0.4-1.4c-0.3-0.3-0.7-0.4-1.2-0.4&#10;&#9;&#9;c-0.4,0-0.7,0.1-1.1,0.3c-0.3,0.2-0.6,0.5-0.7,0.8c-0.1,0.3-0.2,0.8-0.2,1.4v4.1H533.1z M541,207.7v-7.5h1.1v1.1&#10;&#9;&#9;c0.3-0.5,0.6-0.9,0.8-1.1c0.2-0.2,0.5-0.3,0.8-0.3c0.4,0,0.9,0.1,1.3,0.4l-0.4,1.2c-0.3-0.2-0.6-0.3-0.9-0.3&#10;&#9;&#9;c-0.3,0-0.5,0.1-0.8,0.3c-0.2,0.2-0.4,0.4-0.5,0.7c-0.1,0.5-0.2,1-0.2,1.5v3.9H541z M550.9,205.3l1.3,0.2c-0.2,0.8-0.6,1.4-1.2,1.8&#10;&#9;&#9;c-0.6,0.4-1.3,0.6-2.2,0.6c-1.1,0-2-0.3-2.6-1c-0.6-0.7-1-1.6-1-2.9c0-1.3,0.3-2.3,1-3c0.7-0.7,1.5-1.1,2.5-1.1c1,0,1.8,0.3,2.5,1&#10;&#9;&#9;c0.6,0.7,1,1.7,1,2.9c0,0.1,0,0.2,0,0.3h-5.6c0,0.8,0.3,1.5,0.7,1.9s0.9,0.7,1.6,0.7c0.5,0,0.9-0.1,1.2-0.4&#10;&#9;&#9;C550.4,206.3,550.7,205.9,550.9,205.3z M546.7,203.3h4.2c-0.1-0.6-0.2-1.1-0.5-1.4c-0.4-0.5-0.9-0.7-1.6-0.7&#10;&#9;&#9;c-0.6,0-1.1,0.2-1.5,0.6C547,202.1,546.8,202.6,546.7,203.3z M558.6,206.8c-0.5,0.4-0.9,0.7-1.4,0.9c-0.4,0.2-0.9,0.2-1.4,0.2&#10;&#9;&#9;c-0.8,0-1.5-0.2-1.9-0.6c-0.4-0.4-0.7-0.9-0.7-1.6c0-0.4,0.1-0.7,0.3-1c0.2-0.3,0.4-0.5,0.7-0.7c0.3-0.2,0.6-0.3,0.9-0.4&#10;&#9;&#9;c0.3-0.1,0.6-0.1,1.1-0.2c1-0.1,1.8-0.3,2.3-0.4c0-0.2,0-0.3,0-0.3c0-0.5-0.1-0.9-0.4-1.1c-0.3-0.3-0.8-0.4-1.5-0.4&#10;&#9;&#9;c-0.6,0-1,0.1-1.3,0.3s-0.5,0.6-0.6,1.1l-1.3-0.2c0.1-0.5,0.3-1,0.6-1.3c0.3-0.3,0.6-0.6,1.1-0.8c0.5-0.2,1.1-0.3,1.7-0.3&#10;&#9;&#9;c0.6,0,1.2,0.1,1.6,0.2c0.4,0.2,0.7,0.3,0.9,0.6c0.2,0.2,0.3,0.5,0.4,0.9c0,0.2,0.1,0.6,0.1,1.2v1.7c0,1.2,0,1.9,0.1,2.3&#10;&#9;&#9;c0.1,0.3,0.2,0.6,0.3,0.9h-1.3C558.7,207.5,558.6,207.2,558.6,206.8z M558.5,204c-0.5,0.2-1.2,0.3-2.1,0.5&#10;&#9;&#9;c-0.5,0.1-0.9,0.2-1.1,0.3s-0.4,0.2-0.5,0.4c-0.1,0.2-0.2,0.4-0.2,0.6c0,0.3,0.1,0.6,0.4,0.9c0.3,0.2,0.6,0.3,1.1,0.3&#10;&#9;&#9;c0.5,0,0.9-0.1,1.3-0.3c0.4-0.2,0.7-0.5,0.8-0.9c0.1-0.3,0.2-0.7,0.2-1.3V204z M566.5,207.7v-1c-0.5,0.7-1.2,1.1-2.1,1.1&#10;&#9;&#9;c-0.6,0-1.2-0.2-1.7-0.5c-0.5-0.3-0.9-0.8-1.2-1.4c-0.3-0.6-0.4-1.3-0.4-2.1c0-0.7,0.1-1.4,0.4-2c0.3-0.6,0.6-1.1,1.1-1.4&#10;&#9;&#9;c0.5-0.3,1.1-0.5,1.7-0.5c0.5,0,0.9,0.1,1.2,0.3c0.4,0.2,0.6,0.4,0.9,0.8v-3.7h1.3v10.4H566.5z M562.5,204c0,1,0.2,1.7,0.6,2.2&#10;&#9;&#9;c0.4,0.5,0.9,0.7,1.4,0.7c0.6,0,1-0.2,1.4-0.7c0.4-0.5,0.6-1.2,0.6-2.1c0-1-0.2-1.8-0.6-2.3c-0.4-0.5-0.9-0.7-1.5-0.7&#10;&#9;&#9;c-0.6,0-1,0.2-1.4,0.7S562.5,203,562.5,204z M569,205.5l1.3-0.2c0.1,0.5,0.3,0.9,0.6,1.2c0.3,0.3,0.8,0.4,1.4,0.4&#10;&#9;&#9;c0.6,0,1-0.1,1.3-0.4c0.3-0.2,0.4-0.5,0.4-0.8c0-0.3-0.1-0.5-0.4-0.7c-0.2-0.1-0.6-0.3-1.3-0.4c-0.9-0.2-1.6-0.4-2-0.6&#10;&#9;&#9;c-0.4-0.2-0.6-0.4-0.8-0.7c-0.2-0.3-0.3-0.6-0.3-1c0-0.3,0.1-0.6,0.2-0.9c0.2-0.3,0.4-0.5,0.6-0.7c0.2-0.1,0.5-0.3,0.8-0.4&#10;&#9;&#9;c0.3-0.1,0.7-0.2,1.1-0.2c0.6,0,1.1,0.1,1.6,0.3c0.4,0.2,0.8,0.4,1,0.7c0.2,0.3,0.4,0.7,0.4,1.2l-1.2,0.2c-0.1-0.4-0.2-0.7-0.5-0.9&#10;&#9;&#9;c-0.3-0.2-0.7-0.3-1.1-0.3c-0.6,0-1,0.1-1.3,0.3c-0.2,0.2-0.4,0.4-0.4,0.7c0,0.2,0.1,0.3,0.2,0.5c0.1,0.1,0.3,0.2,0.5,0.3&#10;&#9;&#9;c0.1,0,0.5,0.2,1.1,0.3c0.9,0.2,1.5,0.4,1.9,0.6c0.4,0.2,0.6,0.4,0.8,0.7c0.2,0.3,0.3,0.7,0.3,1.1c0,0.4-0.1,0.8-0.4,1.2&#10;&#9;&#9;c-0.2,0.4-0.6,0.7-1.1,0.9c-0.5,0.2-1,0.3-1.6,0.3c-1,0-1.7-0.2-2.2-0.6C569.5,206.9,569.2,206.3,569,205.5z"/>
    <path fill="#FFF2CC" d="M423.1,227.3h73.3v40.5h-73.3V227.3z"/>
    <path fill="none" stroke="#000000" stroke-linejoin="round" stroke-miterlimit="10" stroke-dasharray="1,3" d="M423.1,227.3h73.3&#10;&#9;&#9;v40.5h-73.3V227.3z"/>
    <path d="M433.2,251.2v-4.5h-0.8v-0.7h0.8v-0.5c0-0.4,0-0.6,0.1-0.8c0.1-0.2,0.2-0.4,0.4-0.5c0.2-0.1,0.5-0.2,0.9-0.2&#10;&#9;&#9;c0.2,0,0.5,0,0.8,0.1l-0.1,0.8c-0.2,0-0.4,0-0.5,0c-0.3,0-0.5,0.1-0.6,0.2c-0.1,0.1-0.2,0.3-0.2,0.6v0.5h1v0.7h-1v4.5H433.2z&#10;&#9;&#9; M435.8,251.2v-5.2h0.8v0.7c0.4-0.6,0.9-0.8,1.6-0.8c0.3,0,0.6,0.1,0.8,0.2c0.3,0.1,0.5,0.3,0.6,0.4c0.1,0.2,0.2,0.4,0.3,0.6&#10;&#9;&#9;c0,0.2,0,0.4,0,0.8v3.2h-0.9v-3.1c0-0.4,0-0.6-0.1-0.8c-0.1-0.2-0.2-0.3-0.4-0.4c-0.2-0.1-0.4-0.2-0.6-0.2c-0.4,0-0.7,0.1-1,0.4&#10;&#9;&#9;c-0.3,0.2-0.4,0.7-0.4,1.3v2.8H435.8z M441.7,251.2v-1h1v1H441.7z M444.3,251.2v-5.2h0.8v0.8c0.2-0.4,0.4-0.6,0.5-0.7&#10;&#9;&#9;c0.2-0.1,0.4-0.2,0.6-0.2c0.3,0,0.6,0.1,0.9,0.3l-0.3,0.8c-0.2-0.1-0.4-0.2-0.6-0.2c-0.2,0-0.4,0.1-0.5,0.2&#10;&#9;&#9;c-0.2,0.1-0.3,0.3-0.3,0.5c-0.1,0.3-0.1,0.6-0.1,1v2.7H444.3z M451.2,249.6l0.9,0.1c-0.1,0.5-0.4,0.9-0.8,1.2&#10;&#9;&#9;c-0.4,0.3-0.9,0.4-1.5,0.4c-0.8,0-1.4-0.2-1.8-0.7c-0.4-0.5-0.7-1.1-0.7-2c0-0.9,0.2-1.5,0.7-2c0.5-0.5,1-0.7,1.7-0.7&#10;&#9;&#9;c0.7,0,1.3,0.2,1.7,0.7c0.4,0.5,0.7,1.1,0.7,2c0,0.1,0,0.1,0,0.2h-3.8c0,0.6,0.2,1,0.5,1.3c0.3,0.3,0.6,0.5,1.1,0.5&#10;&#9;&#9;c0.3,0,0.6-0.1,0.8-0.3C450.9,250.2,451.1,249.9,451.2,249.6z M448.4,248.1h2.9c0-0.4-0.2-0.8-0.3-1c-0.3-0.3-0.6-0.5-1.1-0.5&#10;&#9;&#9;c-0.4,0-0.7,0.1-1,0.4C448.6,247.3,448.4,247.7,448.4,248.1z M456.7,250.6c-0.3,0.3-0.6,0.5-0.9,0.6c-0.3,0.1-0.6,0.2-1,0.2&#10;&#9;&#9;c-0.6,0-1-0.1-1.3-0.4c-0.3-0.3-0.5-0.6-0.5-1.1c0-0.2,0.1-0.5,0.2-0.7c0.1-0.2,0.3-0.4,0.5-0.5c0.2-0.1,0.4-0.2,0.6-0.3&#10;&#9;&#9;c0.2,0,0.4-0.1,0.8-0.1c0.7-0.1,1.2-0.2,1.6-0.3c0-0.1,0-0.2,0-0.2c0-0.4-0.1-0.6-0.3-0.8c-0.2-0.2-0.6-0.3-1-0.3&#10;&#9;&#9;c-0.4,0-0.7,0.1-0.9,0.2c-0.2,0.1-0.3,0.4-0.4,0.8l-0.8-0.1c0.1-0.4,0.2-0.7,0.4-0.9c0.2-0.2,0.4-0.4,0.8-0.5&#10;&#9;&#9;c0.3-0.1,0.7-0.2,1.2-0.2c0.4,0,0.8,0.1,1.1,0.2c0.3,0.1,0.5,0.2,0.6,0.4c0.1,0.2,0.2,0.3,0.3,0.6c0,0.2,0,0.4,0,0.8v1.2&#10;&#9;&#9;c0,0.8,0,1.3,0.1,1.5c0,0.2,0.1,0.4,0.2,0.6h-0.9C456.8,251,456.8,250.8,456.7,250.6z M456.7,248.6c-0.3,0.1-0.8,0.2-1.4,0.3&#10;&#9;&#9;c-0.4,0.1-0.6,0.1-0.8,0.2s-0.3,0.2-0.3,0.3c-0.1,0.1-0.1,0.3-0.1,0.4c0,0.2,0.1,0.4,0.3,0.6c0.2,0.2,0.4,0.2,0.8,0.2&#10;&#9;&#9;c0.3,0,0.6-0.1,0.9-0.2c0.3-0.2,0.5-0.4,0.6-0.6c0.1-0.2,0.1-0.5,0.1-0.9V248.6z M462.4,251.2v-0.6c-0.3,0.5-0.8,0.8-1.4,0.8&#10;&#9;&#9;c-0.4,0-0.8-0.1-1.1-0.3c-0.3-0.2-0.6-0.5-0.8-1c-0.2-0.4-0.3-0.9-0.3-1.4c0-0.5,0.1-1,0.3-1.4c0.2-0.4,0.4-0.7,0.8-1&#10;&#9;&#9;s0.7-0.3,1.1-0.3c0.3,0,0.6,0.1,0.8,0.2c0.2,0.1,0.4,0.3,0.6,0.5v-2.6h0.9v7.1H462.4z M459.6,248.6c0,0.7,0.1,1.2,0.4,1.5&#10;&#9;&#9;c0.3,0.3,0.6,0.5,1,0.5s0.7-0.2,1-0.5c0.3-0.3,0.4-0.8,0.4-1.4c0-0.7-0.1-1.2-0.4-1.6c-0.3-0.3-0.6-0.5-1-0.5c-0.4,0-0.7,0.2-1,0.5&#10;&#9;&#9;C459.8,247.5,459.6,248,459.6,248.6z M464.9,251.2v-7.1h4.8v0.8h-3.9v2.2h3.3v0.8h-3.3v3.2H464.9z M471,245.1v-1h0.9v1H471z&#10;&#9;&#9; M471,251.2v-5.2h0.9v5.2H471z M473.2,251.2v-7.1h0.9v7.1H473.2z M479,249.6l0.9,0.1c-0.1,0.5-0.4,0.9-0.8,1.2&#10;&#9;&#9;c-0.4,0.3-0.9,0.4-1.5,0.4c-0.8,0-1.4-0.2-1.8-0.7c-0.4-0.5-0.7-1.1-0.7-2c0-0.9,0.2-1.5,0.7-2c0.5-0.5,1-0.7,1.7-0.7&#10;&#9;&#9;c0.7,0,1.3,0.2,1.7,0.7c0.4,0.5,0.7,1.1,0.7,2c0,0.1,0,0.1,0,0.2h-3.8c0,0.6,0.2,1,0.5,1.3c0.3,0.3,0.6,0.5,1.1,0.5&#10;&#9;&#9;c0.3,0,0.6-0.1,0.8-0.3C478.7,250.2,478.9,249.9,479,249.6z M476.1,248.1h2.9c0-0.4-0.2-0.8-0.3-1c-0.3-0.3-0.6-0.5-1.1-0.5&#10;&#9;&#9;c-0.4,0-0.7,0.1-1,0.4C476.3,247.3,476.2,247.7,476.1,248.1z M482.8,253.3c-0.5-0.6-0.9-1.3-1.2-2.1c-0.3-0.8-0.5-1.7-0.5-2.5&#10;&#9;&#9;c0-0.8,0.1-1.5,0.4-2.2c0.3-0.8,0.7-1.6,1.4-2.5h0.6c-0.4,0.7-0.6,1.2-0.8,1.4c-0.2,0.4-0.4,0.9-0.5,1.4c-0.1,0.6-0.2,1.2-0.2,1.8&#10;&#9;&#9;c0,1.6,0.5,3.1,1.4,4.7H482.8z M485.1,253.3h-0.6c1-1.6,1.5-3.1,1.5-4.7c0-0.6-0.1-1.2-0.2-1.8c-0.1-0.5-0.3-1-0.5-1.4&#10;&#9;&#9;c-0.1-0.3-0.4-0.8-0.8-1.5h0.6c0.6,0.8,1.1,1.6,1.4,2.5c0.2,0.7,0.4,1.4,0.4,2.2c0,0.9-0.2,1.7-0.5,2.5&#10;&#9;&#9;C486,252,485.6,252.7,485.1,253.3z"/>
    <path fill="#FFF2CC" d="M127.7,454.9h474.4V500H127.7V454.9z"/>
    <path fill="none" stroke="#000000" stroke-linejoin="round" stroke-miterlimit="10" d="M127.7,454.9h474.4V500H127.7V454.9z"/>
    <path fill="#CFE2F3" d="M135.4,460.3H231v33.7h-95.6V460.3z"/>
    <path fill="none" stroke="#000000" stroke-linejoin="round" stroke-miterlimit="10" d="M135.4,460.3H231v33.7h-95.6V460.3z"/>
    <path d="M163.3,479.6l1.3,0.2c-0.1,0.9-0.5,1.5-1.1,2c-0.6,0.5-1.3,0.7-2.1,0.7c-1,0-1.9-0.3-2.5-1c-0.6-0.7-0.9-1.6-0.9-2.9&#10;&#9;&#9;c0-0.8,0.1-1.5,0.4-2.1c0.3-0.6,0.7-1.1,1.2-1.4c0.6-0.3,1.2-0.5,1.8-0.5c0.8,0,1.5,0.2,2,0.6c0.5,0.4,0.9,1,1,1.8l-1.2,0.2&#10;&#9;&#9;c-0.1-0.5-0.3-0.9-0.6-1.1c-0.3-0.3-0.7-0.4-1.1-0.4c-0.6,0-1.2,0.2-1.6,0.7c-0.4,0.5-0.6,1.2-0.6,2.2c0,1,0.2,1.7,0.6,2.2&#10;&#9;&#9;c0.4,0.5,0.9,0.7,1.5,0.7c0.5,0,0.9-0.2,1.3-0.5C163,480.7,163.2,480.3,163.3,479.6z M170.4,481.5c-0.5,0.4-0.9,0.7-1.4,0.9&#10;&#9;&#9;c-0.4,0.2-0.9,0.2-1.4,0.2c-0.8,0-1.5-0.2-1.9-0.6c-0.4-0.4-0.7-0.9-0.7-1.6c0-0.4,0.1-0.7,0.3-1c0.2-0.3,0.4-0.5,0.7-0.7&#10;&#9;&#9;c0.3-0.2,0.6-0.3,0.9-0.4c0.3-0.1,0.6-0.1,1.1-0.2c1-0.1,1.8-0.3,2.3-0.4c0-0.2,0-0.3,0-0.3c0-0.5-0.1-0.9-0.4-1.1&#10;&#9;&#9;c-0.3-0.3-0.8-0.4-1.5-0.4c-0.6,0-1,0.1-1.3,0.3c-0.3,0.2-0.5,0.6-0.6,1.1l-1.3-0.2c0.1-0.5,0.3-1,0.6-1.3c0.3-0.3,0.6-0.6,1.1-0.8&#10;&#9;&#9;c0.5-0.2,1.1-0.3,1.7-0.3c0.6,0,1.2,0.1,1.6,0.2c0.4,0.2,0.7,0.3,0.9,0.6c0.2,0.2,0.3,0.5,0.4,0.9c0,0.2,0.1,0.6,0.1,1.2v1.7&#10;&#9;&#9;c0,1.2,0,1.9,0.1,2.3c0.1,0.3,0.2,0.6,0.3,0.9h-1.3C170.5,482.1,170.5,481.8,170.4,481.5z M170.3,478.6c-0.5,0.2-1.2,0.3-2.1,0.5&#10;&#9;&#9;c-0.5,0.1-0.9,0.2-1.1,0.3c-0.2,0.1-0.4,0.2-0.5,0.4c-0.1,0.2-0.2,0.4-0.2,0.6c0,0.3,0.1,0.6,0.4,0.9c0.3,0.2,0.6,0.3,1.1,0.3&#10;&#9;&#9;c0.5,0,0.9-0.1,1.3-0.3c0.4-0.2,0.7-0.5,0.8-0.9c0.1-0.3,0.2-0.7,0.2-1.3V478.6z M173.4,482.4V472h1.3v10.4H173.4z M176.6,482.4&#10;&#9;&#9;V472h1.3v10.4H176.6z M181,482.4h-1.2V472h1.3v3.7c0.5-0.7,1.2-1,2.1-1c0.5,0,0.9,0.1,1.3,0.3c0.4,0.2,0.8,0.4,1,0.8&#10;&#9;&#9;c0.3,0.3,0.5,0.7,0.6,1.2c0.2,0.5,0.2,1,0.2,1.5c0,1.3-0.3,2.3-1,3c-0.6,0.7-1.4,1.1-2.3,1.1c-0.9,0-1.6-0.4-2.1-1.1V482.4z&#10;&#9;&#9; M180.9,478.6c0,0.9,0.1,1.6,0.4,2c0.4,0.7,1,1,1.6,1c0.6,0,1-0.2,1.4-0.7c0.4-0.5,0.6-1.2,0.6-2.2c0-1-0.2-1.7-0.6-2.2&#10;&#9;&#9;c-0.4-0.5-0.9-0.7-1.4-0.7c-0.6,0-1,0.2-1.4,0.7S180.9,477.6,180.9,478.6z M192.6,481.5c-0.5,0.4-0.9,0.7-1.4,0.9&#10;&#9;&#9;c-0.4,0.2-0.9,0.2-1.4,0.2c-0.8,0-1.5-0.2-1.9-0.6c-0.4-0.4-0.7-0.9-0.7-1.6c0-0.4,0.1-0.7,0.3-1c0.2-0.3,0.4-0.5,0.7-0.7&#10;&#9;&#9;c0.3-0.2,0.6-0.3,0.9-0.4c0.3-0.1,0.6-0.1,1.1-0.2c1-0.1,1.8-0.3,2.3-0.4c0-0.2,0-0.3,0-0.3c0-0.5-0.1-0.9-0.4-1.1&#10;&#9;&#9;c-0.3-0.3-0.8-0.4-1.5-0.4c-0.6,0-1,0.1-1.3,0.3c-0.3,0.2-0.5,0.6-0.6,1.1l-1.3-0.2c0.1-0.5,0.3-1,0.6-1.3c0.3-0.3,0.6-0.6,1.1-0.8&#10;&#9;&#9;c0.5-0.2,1.1-0.3,1.7-0.3c0.6,0,1.2,0.1,1.6,0.2c0.4,0.2,0.7,0.3,0.9,0.6c0.2,0.2,0.3,0.5,0.4,0.9c0,0.2,0.1,0.6,0.1,1.2v1.7&#10;&#9;&#9;c0,1.2,0,1.9,0.1,2.3c0.1,0.3,0.2,0.6,0.3,0.9h-1.3C192.8,482.1,192.7,481.8,192.6,481.5z M192.5,478.6c-0.5,0.2-1.2,0.3-2.1,0.5&#10;&#9;&#9;c-0.5,0.1-0.9,0.2-1.1,0.3c-0.2,0.1-0.4,0.2-0.5,0.4c-0.1,0.2-0.2,0.4-0.2,0.6c0,0.3,0.1,0.6,0.4,0.9c0.3,0.2,0.6,0.3,1.1,0.3&#10;&#9;&#9;c0.5,0,0.9-0.1,1.3-0.3c0.4-0.2,0.7-0.5,0.8-0.9c0.1-0.3,0.2-0.7,0.2-1.3V478.6z M200.6,479.6l1.3,0.2c-0.1,0.9-0.5,1.5-1.1,2&#10;&#9;&#9;c-0.6,0.5-1.3,0.7-2.1,0.7c-1,0-1.9-0.3-2.5-1c-0.6-0.7-0.9-1.6-0.9-2.9c0-0.8,0.1-1.5,0.4-2.1c0.3-0.6,0.7-1.1,1.2-1.4&#10;&#9;&#9;c0.6-0.3,1.2-0.5,1.8-0.5c0.8,0,1.5,0.2,2,0.6c0.5,0.4,0.9,1,1,1.8l-1.2,0.2c-0.1-0.5-0.3-0.9-0.6-1.1c-0.3-0.3-0.7-0.4-1.1-0.4&#10;&#9;&#9;c-0.6,0-1.2,0.2-1.6,0.7c-0.4,0.5-0.6,1.2-0.6,2.2c0,1,0.2,1.7,0.6,2.2c0.4,0.5,0.9,0.7,1.5,0.7c0.5,0,0.9-0.2,1.3-0.5&#10;&#9;&#9;C200.3,480.7,200.5,480.3,200.6,479.6z M202.8,482.4V472h1.3v5.9l3-3.1h1.6l-2.9,2.8l3.2,4.7h-1.6l-2.5-3.8l-0.9,0.9v3H202.8z"/>
    <path fill-opacity="0" d="M459.8,267.8L183.2,460.3"/>
    <path fill="none" stroke="#000000" stroke-linejoin="round" stroke-miterlimit="10" d="M459.8,267.8L186.9,457.6"/>
    <path stroke="#000000" stroke-miterlimit="10" d="M186.2,456.6l-2.1,3l3.6-0.9L186.2,456.6z"/>
    <path fill-opacity="0" d="M273.7,416.7h95.6v33.7h-95.6V416.7z"/>
    <path d="M284.4,437.2v-9.2h-3.4v-1.2h8.2v1.2h-3.4v9.2H284.4z M295.2,436.3c-0.5,0.4-0.9,0.7-1.4,0.9c-0.4,0.2-0.9,0.2-1.4,0.2&#10;&#9;&#9;c-0.8,0-1.5-0.2-1.9-0.6c-0.4-0.4-0.7-0.9-0.7-1.6c0-0.4,0.1-0.7,0.3-1c0.2-0.3,0.4-0.5,0.7-0.7c0.3-0.2,0.6-0.3,0.9-0.4&#10;&#9;&#9;c0.3-0.1,0.6-0.1,1.1-0.2c1-0.1,1.8-0.3,2.3-0.4c0-0.2,0-0.3,0-0.3c0-0.5-0.1-0.9-0.4-1.1c-0.3-0.3-0.8-0.4-1.5-0.4&#10;&#9;&#9;c-0.6,0-1,0.1-1.3,0.3s-0.5,0.6-0.6,1.1l-1.3-0.2c0.1-0.5,0.3-1,0.6-1.3c0.3-0.3,0.6-0.6,1.1-0.8c0.5-0.2,1.1-0.3,1.7-0.3&#10;&#9;&#9;c0.6,0,1.2,0.1,1.6,0.2c0.4,0.2,0.7,0.3,0.9,0.6c0.2,0.2,0.3,0.5,0.4,0.9c0,0.2,0.1,0.6,0.1,1.2v1.7c0,1.2,0,1.9,0.1,2.3&#10;&#9;&#9;c0.1,0.3,0.2,0.6,0.3,0.9h-1.3C295.3,437,295.2,436.7,295.2,436.3z M295.1,433.5c-0.5,0.2-1.2,0.3-2.1,0.5&#10;&#9;&#9;c-0.5,0.1-0.9,0.2-1.1,0.3c-0.2,0.1-0.4,0.2-0.5,0.4s-0.2,0.4-0.2,0.6c0,0.3,0.1,0.6,0.4,0.9c0.3,0.2,0.6,0.3,1.1,0.3&#10;&#9;&#9;c0.5,0,0.9-0.1,1.3-0.3c0.4-0.2,0.7-0.5,0.8-0.9c0.1-0.3,0.2-0.7,0.2-1.3V433.5z M297.7,435l1.3-0.2c0.1,0.5,0.3,0.9,0.6,1.2&#10;&#9;&#9;c0.3,0.3,0.8,0.4,1.4,0.4c0.6,0,1-0.1,1.3-0.4c0.3-0.2,0.4-0.5,0.4-0.8c0-0.3-0.1-0.5-0.4-0.7c-0.2-0.1-0.6-0.3-1.3-0.4&#10;&#9;&#9;c-0.9-0.2-1.6-0.4-2-0.6c-0.4-0.2-0.6-0.4-0.8-0.7c-0.2-0.3-0.3-0.6-0.3-1c0-0.3,0.1-0.6,0.2-0.9c0.2-0.3,0.4-0.5,0.6-0.7&#10;&#9;&#9;c0.2-0.1,0.5-0.3,0.8-0.4c0.3-0.1,0.7-0.2,1.1-0.2c0.6,0,1.1,0.1,1.6,0.3c0.4,0.2,0.8,0.4,1,0.7c0.2,0.3,0.4,0.7,0.4,1.2l-1.2,0.2&#10;&#9;&#9;c-0.1-0.4-0.2-0.7-0.5-0.9c-0.3-0.2-0.7-0.3-1.1-0.3c-0.6,0-1,0.1-1.3,0.3c-0.2,0.2-0.4,0.4-0.4,0.7c0,0.2,0.1,0.3,0.2,0.5&#10;&#9;&#9;c0.1,0.1,0.3,0.2,0.5,0.3c0.1,0,0.5,0.2,1.1,0.3c0.9,0.2,1.5,0.4,1.9,0.6c0.4,0.2,0.6,0.4,0.8,0.7c0.2,0.3,0.3,0.7,0.3,1.1&#10;&#9;&#9;c0,0.4-0.1,0.8-0.4,1.2c-0.2,0.4-0.6,0.7-1.1,0.9c-0.5,0.2-1,0.3-1.6,0.3c-1,0-1.7-0.2-2.2-0.6C298.2,436.4,297.8,435.8,297.7,435z&#10;&#9;&#9; M305.4,437.2v-10.4h1.3v5.9l3-3.1h1.6l-2.9,2.8l3.2,4.7H310l-2.5-3.8l-0.9,0.9v3H305.4z M324.5,436.1c0.6,0.4,1.2,0.8,1.8,1&#10;&#9;&#9;l-0.4,1c-0.7-0.3-1.5-0.7-2.2-1.3c-0.8,0.4-1.6,0.6-2.5,0.6c-0.9,0-1.8-0.2-2.6-0.7c-0.8-0.5-1.4-1.1-1.8-1.9&#10;&#9;&#9;c-0.4-0.8-0.6-1.8-0.6-2.8c0-1,0.2-2,0.6-2.8c0.4-0.8,1-1.5,1.8-1.9c0.8-0.4,1.6-0.7,2.6-0.7c1,0,1.8,0.2,2.6,0.7&#10;&#9;&#9;c0.8,0.5,1.4,1.1,1.8,1.9c0.4,0.8,0.6,1.7,0.6,2.8c0,0.9-0.1,1.6-0.4,2.3C325.4,435,325,435.6,324.5,436.1z M321.5,434.4&#10;&#9;&#9;c0.8,0.2,1.5,0.5,2,1c0.8-0.7,1.2-1.9,1.2-3.3c0-0.8-0.1-1.6-0.4-2.2c-0.3-0.6-0.7-1.1-1.3-1.5c-0.5-0.4-1.2-0.5-1.9-0.5&#10;&#9;&#9;c-1,0-1.9,0.4-2.6,1.1c-0.7,0.7-1,1.7-1,3.1c0,1.4,0.3,2.4,1,3.1c0.7,0.7,1.5,1.1,2.6,1.1c0.5,0,0.9-0.1,1.4-0.3&#10;&#9;&#9;c-0.4-0.3-0.9-0.5-1.4-0.6L321.5,434.4z M332.5,437.2v-1.1c-0.6,0.9-1.4,1.3-2.4,1.3c-0.4,0-0.9-0.1-1.2-0.3&#10;&#9;&#9;c-0.4-0.2-0.7-0.4-0.9-0.6c-0.2-0.3-0.3-0.6-0.4-0.9c0-0.3-0.1-0.7-0.1-1.2v-4.7h1.3v4.2c0,0.7,0,1.1,0.1,1.4&#10;&#9;&#9;c0.1,0.3,0.3,0.6,0.5,0.8c0.3,0.2,0.6,0.3,1,0.3c0.4,0,0.7-0.1,1.1-0.3c0.3-0.2,0.6-0.5,0.7-0.8c0.1-0.3,0.2-0.8,0.2-1.5v-4h1.3&#10;&#9;&#9;v7.5H332.5z M340.7,434.8l1.3,0.2c-0.2,0.8-0.6,1.4-1.2,1.8c-0.6,0.4-1.3,0.6-2.2,0.6c-1.1,0-2-0.3-2.6-1c-0.6-0.7-1-1.6-1-2.9&#10;&#9;&#9;c0-1.3,0.3-2.3,1-3c0.7-0.7,1.5-1.1,2.5-1.1c1,0,1.8,0.3,2.5,1c0.6,0.7,1,1.7,1,2.9c0,0.1,0,0.2,0,0.3h-5.6c0,0.8,0.3,1.5,0.7,1.9&#10;&#9;&#9;c0.4,0.4,0.9,0.7,1.6,0.7c0.5,0,0.9-0.1,1.2-0.4C340.2,435.8,340.5,435.4,340.7,434.8z M336.5,432.8h4.2c-0.1-0.6-0.2-1.1-0.5-1.4&#10;&#9;&#9;c-0.4-0.5-0.9-0.7-1.6-0.7c-0.6,0-1.1,0.2-1.5,0.6C336.7,431.6,336.5,432.1,336.5,432.8z M348.4,437.2v-1.1&#10;&#9;&#9;c-0.6,0.9-1.4,1.3-2.4,1.3c-0.4,0-0.9-0.1-1.2-0.3c-0.4-0.2-0.7-0.4-0.9-0.6c-0.2-0.3-0.3-0.6-0.4-0.9c0-0.3-0.1-0.7-0.1-1.2v-4.7&#10;&#9;&#9;h1.3v4.2c0,0.7,0,1.1,0.1,1.4c0.1,0.3,0.3,0.6,0.5,0.8c0.3,0.2,0.6,0.3,1,0.3c0.4,0,0.7-0.1,1.1-0.3c0.3-0.2,0.6-0.5,0.7-0.8&#10;&#9;&#9;c0.1-0.3,0.2-0.8,0.2-1.5v-4h1.3v7.5H348.4z M356.5,434.8l1.3,0.2c-0.2,0.8-0.6,1.4-1.2,1.8c-0.6,0.4-1.3,0.6-2.2,0.6&#10;&#9;&#9;c-1.1,0-2-0.3-2.6-1c-0.6-0.7-1-1.6-1-2.9c0-1.3,0.3-2.3,1-3c0.7-0.7,1.5-1.1,2.5-1.1c1,0,1.8,0.3,2.5,1c0.6,0.7,1,1.7,1,2.9&#10;&#9;&#9;c0,0.1,0,0.2,0,0.3h-5.6c0,0.8,0.3,1.5,0.7,1.9c0.4,0.4,0.9,0.7,1.6,0.7c0.5,0,0.9-0.1,1.2-0.4&#10;&#9;&#9;C356.1,435.8,356.3,435.4,356.5,434.8z M352.3,432.8h4.2c-0.1-0.6-0.2-1.1-0.5-1.4c-0.4-0.5-0.9-0.7-1.6-0.7&#10;&#9;&#9;c-0.6,0-1.1,0.2-1.5,0.6C352.6,431.6,352.4,432.1,352.3,432.8z"/>
  </g>
</svg>